<?xml version="1.0" encoding="UTF-8"?>
<svg width="83px" height="24px" viewBox="0 0 83 24" version="1.1" xmlns="http://www.w3.org/2000/svg" xmlns:xlink="http://www.w3.org/1999/xlink">
    <!-- Generator: sketchtool 51.2 (57519) - http://www.bohemiancoding.com/sketch -->
    <title>7282CF9D-007B-40EB-AC6F-12492379A3E3</title>
    <desc>Created with sketchtool.</desc>
    <defs></defs>
    <g id="START-HERE" stroke="none" stroke-width="1" fill="none" fill-rule="evenodd">
        <g id="1024_tablet_template" transform="translate(-42.000000, -28.000000)" fill="#FFFFFF">
            <g id="Nav" transform="translate(0.000000, 1.000000)">
                <g id="Group-11">
                    <g id="new-logo-light-nav" transform="translate(42.000000, 27.000000)">
                        <path d="M38.0052317,11.6747157 L38.0052317,7.99416975 C38.0052317,3.83769117 40.1922077,2.98101238 43.5164113,2.98101238 L49.2608684,2.98101238 C52.5559123,2.98101238 54.772048,3.83769117 54.772048,7.99416975 L54.772048,11.6747157 C54.772048,15.8311942 52.585072,16.687873 49.2608684,16.687873 L43.5164113,16.687873 C40.1922077,16.687873 38.0052317,15.8311942 38.0052317,11.6747157 L38.0052317,11.6747157 Z M43.3706129,0.315789474 C39.0841399,0.44270485 35.0309443,1.68012977 35.0309443,7.80379668 L35.0309443,11.8333599 C35.0309443,18.4646883 39.7548125,19.3530959 44.3620421,19.3530959 L48.386078,19.3530959 C52.9933075,19.3530959 57.7171758,18.4646883 57.7171758,11.8333599 L57.7171758,7.83552553 C57.7171758,1.68012977 53.6639802,0.474433694 49.3775071,0.347518318 L43.3706129,0.347518318 L43.3706129,0.315789474 Z M12.2863935,15.8629231 C12.2572338,15.8311942 12.1405951,15.7042789 12.0822757,15.67255 C11.411603,14.9427866 10.9742078,13.8322771 10.9450482,12.0871906 L10.9450482,3.23484313 L22.8421978,3.23484313 C24.4168206,3.29830082 25.5540481,3.61558926 26.3121998,4.28189499 C26.3413595,4.31362383 26.4579982,4.44053921 26.5163176,4.47226805 C27.1869902,5.20203147 27.6243854,6.31254101 27.6535451,8.05762744 L27.6535451,16.9099749 L15.7563954,16.9099749 C14.1817727,16.8147884 13.0445452,16.4975 12.2863935,15.8629231 L12.2863935,15.8629231 Z M9.42874477,0.506162538 C8.52479467,0.506162538 7.94160106,1.10901058 7.94160106,1.96568937 L7.94160106,12.0554618 C7.94160106,14.5620405 8.61227371,16.2436692 9.69118189,17.3541788 C11.4699224,19.2579094 14.4150501,19.6069267 17.3018585,19.6069267 L28.0034613,19.6069267 L31.2401858,23.1288284 C31.7942198,23.7316764 32.5815311,23.6999476 33.1938844,23.0336419 C33.8353974,22.3356073 33.8353974,21.4789285 33.3396828,20.9395381 L30.6569922,18.0204845 L30.6569922,8.05762744 C30.6569922,5.55104875 29.9863196,3.86942001 28.9074114,2.75891047 C27.1286709,0.855179824 24.1835431,0.506162538 21.2967348,0.506162538 L9.42874477,0.506162538 L9.42874477,0.506162538 Z M1.67226974,0.315789474 C1.64311006,0.315789474 1.64311006,0.315789474 1.67226974,0.315789474 C0.797479325,0.315789474 0.214285714,0.918637512 0.214285714,1.90223168 L0.214285714,17.7983826 C0.214285714,18.7819767 0.797479325,19.3848248 1.67226974,19.3848248 L1.67226974,19.3848248 L1.67226974,19.3848248 C2.54706016,19.3848248 3.13025377,18.7819767 3.13025377,17.7983826 L3.13025377,1.93396052 C3.10109409,0.950366356 2.54706016,0.315789474 1.67226974,0.315789474 L1.67226974,0.315789474 L1.67226974,0.315789474 Z M70.6057546,0.474433694 C63.5491119,0.474433694 62.1494472,2.25124896 62.1494472,5.13857378 L62.1494472,6.21735448 C62.1494472,9.73925617 63.6657506,11.1035965 67.6023075,11.1035965 L76.1752535,11.1035965 C79.6160959,11.1035965 79.9076927,12.1823772 79.9076927,13.7370905 L79.9076927,13.8640059 C79.9076927,16.085025 79.3828184,16.6561442 74.4548324,16.6561442 L68.0397027,16.6561442 L68.0397027,16.6561442 C66.4067606,16.6244153 65.3861717,16.4023134 64.8904572,15.482177 C64.8321378,15.3869904 64.7738185,15.260075 64.7738185,15.260075 C64.5988604,14.7206847 64.1031458,14.2764809 63.3449941,14.2764809 C62.4993634,14.2764809 61.9744891,14.7524135 61.9453294,15.5456346 L61.9453294,15.7994654 C62.2077666,17.5762807 63.3449941,19.0992652 68.1855011,19.2579094 L68.1855011,19.2579094 L75.0671857,19.2579094 C78.1581118,19.2579094 82.8236607,19.2579094 82.8236607,13.9274636 L82.8236607,13.8640059 C82.8236607,8.81911969 79.7327346,8.43837357 75.7378583,8.43837357 L68.3896188,8.43837357 C65.5902895,8.43837357 65.0945749,7.67688131 65.0945749,6.18562563 L65.0945749,5.51931991 C65.0945749,3.52040273 65.911046,3.10792776 69.8767625,3.10792776 L74.7464292,3.10792776 C77.1083633,3.10792776 78.508028,3.17138544 79.0912216,4.28189499 C79.149541,4.37708152 79.2078603,4.5039969 79.2078603,4.5039969 C79.3828184,5.04338725 79.878533,5.48759106 80.6658444,5.48759106 C81.5114751,5.48759106 82.0363493,5.0116584 82.065509,4.2184373 L82.065509,3.96460655 C81.7739122,2.09260474 80.520046,0.474433694 74.9213873,0.474433694 L70.6057546,0.474433694 L70.6057546,0.474433694 Z" id="iQOS-Logo-White"></path>
                    </g>
                </g>
            </g>
        </g>
    </g>
</svg>